<svg width="41" height="40" viewBox="0 0 41 40" fill="none" xmlns="http://www.w3.org/2000/svg">
<path d="M20.2854 35.9112C16.5892 35.9112 13.507 34.6707 11.039 32.1896C8.57087 29.7086 7.33628 26.6204 7.33521 22.9253C7.33521 21.2888 7.71292 19.6524 8.46834 18.016C9.22377 16.3795 10.1681 14.8091 11.3012 13.3046C12.4343 11.8001 13.6619 10.3881 14.9839 9.06835C16.3059 7.74864 17.5335 6.6005 18.6666 5.62391C18.8824 5.41276 19.1323 5.26126 19.4161 5.16941C19.6999 5.07756 19.9897 5.0311 20.2854 5.03005C20.5811 5.02899 20.8714 5.07544 21.1563 5.16941C21.4412 5.26337 21.6905 5.41487 21.9041 5.62391C23.0373 6.6005 24.2648 7.74864 25.5868 9.06835C26.9088 10.3881 28.1364 11.8001 29.2695 13.3046C30.4027 14.8091 31.347 16.3795 32.1024 18.016C32.8578 19.6524 33.2355 21.2888 33.2355 22.9253C33.2355 26.6204 32.0015 29.7086 29.5334 32.1896C27.0653 34.6707 23.9826 35.9112 20.2854 35.9112ZM24.3323 29.5766C25.0068 29.5766 25.5804 29.3459 26.053 28.8845C26.5257 28.4232 26.7615 27.862 26.7604 27.2011C26.7594 26.5402 26.5236 25.9796 26.053 25.5193C25.5825 25.059 25.0089 24.8278 24.3323 24.8256C23.6556 24.8235 23.0826 25.0547 22.6132 25.5193C22.1437 25.9838 21.9074 26.5444 21.9041 27.2011C21.9009 27.8578 22.1372 28.4189 22.6132 28.8845C23.0891 29.3501 23.6621 29.5808 24.3323 29.5766ZM15.0244 28.3889C15.3481 28.7056 15.7258 28.8639 16.1575 28.8639C16.5892 28.8639 16.9669 28.7056 17.2906 28.3889L25.5464 20.3123C25.8701 19.9955 26.032 19.626 26.032 19.2037C26.032 18.7814 25.8701 18.4119 25.5464 18.0951C25.2226 17.7784 24.8384 17.62 24.3938 17.62C23.9492 17.62 23.5645 17.7784 23.2396 18.0951L15.0244 26.1322C14.7006 26.4489 14.5387 26.8253 14.5387 27.2613C14.5387 27.6973 14.7006 28.0732 15.0244 28.3889ZM16.2384 21.6584C16.9129 21.6584 17.4865 21.4277 17.9592 20.9663C18.4319 20.5049 18.6677 19.9438 18.6666 19.2829C18.6655 18.622 18.4297 18.0614 17.9592 17.601C17.4887 17.1407 16.9151 16.9095 16.2384 16.9074C15.5618 16.9053 14.9887 17.1365 14.5193 17.601C14.0499 18.0656 13.8135 18.6262 13.8103 19.2829C13.807 19.9396 14.0434 20.5007 14.5193 20.9663C14.9952 21.4319 15.5683 21.6626 16.2384 21.6584Z" fill="#B1DEF0"/>
</svg>
