<svg width="41" height="41" viewBox="0 0 41 41" fill="none" xmlns="http://www.w3.org/2000/svg">
<path fill-rule="evenodd" clip-rule="evenodd" d="M15.1889 8.7803C15.1889 7.25769 15.7653 5.79745 16.7913 4.7208C17.8173 3.64416 19.2088 3.03931 20.6597 3.03931C22.1106 3.03931 23.5022 3.64416 24.5281 4.7208C25.5541 5.79745 26.1305 7.25769 26.1305 8.7803V19.3055C26.1305 19.9083 26.4077 20.4651 26.8307 20.8727C28.1823 22.1767 29.1273 23.8785 29.542 25.7554C29.9567 27.6322 29.8218 29.5968 29.155 31.3919C28.4882 33.187 27.3205 34.729 25.8047 35.8161C24.2889 36.9033 22.4957 37.4849 20.6597 37.4849C18.8237 37.4849 17.0305 36.9033 15.5147 35.8161C13.999 34.729 12.8313 33.187 12.1644 31.3919C11.4976 29.5968 11.3627 27.6322 11.7774 25.7554C12.1921 23.8785 13.1371 22.1767 14.4887 20.8727C14.9117 20.4651 15.1889 19.9083 15.1889 19.3055V8.7803ZM18.8361 8.7803V22.1759H22.4833V8.7803C22.4833 8.27276 22.2912 7.78602 21.9492 7.42713C21.6072 7.06825 21.1434 6.86663 20.6597 6.86663C20.1761 6.86663 19.7122 7.06825 19.3702 7.42713C19.0282 7.78602 18.8361 8.27276 18.8361 8.7803Z" fill="#B1DEF0"/>
</svg>
