<svg width="280" height="273" viewBox="0 0 280 273" fill="none" xmlns="http://www.w3.org/2000/svg">
<g filter="url(#filter0_f_1_16)">
<rect x="77.2122" y="77" width="125.788" height="118.45" rx="59.2251" fill="#FFEF9A"/>
</g>
<g filter="url(#filter1_i_1_16)">
<path d="M194.614 145.659C194.614 175.763 170.21 200.167 140.106 200.167C110.002 200.167 85.5981 175.763 85.5981 145.659C85.5981 115.555 110.002 91.1511 140.106 91.1511C170.21 91.1511 194.614 115.555 194.614 145.659Z" fill="url(#paint0_linear_1_16)"/>
</g>
<g filter="url(#filter3_i_1_16)">
<path d="M171.2 173.767C171.579 171.616 171.776 169.403 171.776 167.144C171.776 146.016 154.488 128.888 133.163 128.888C117.309 128.888 103.687 138.354 97.74 151.892C92.9224 147.771 86.671 145.283 79.8394 145.283C64.6068 145.283 52.2584 157.654 52.2584 172.913C52.2584 173.763 52.2967 174.604 52.3716 175.434C45.045 178.989 40.0001 186.45 40.0001 195.078C40.0001 207.151 49.8789 216.939 62.065 216.939H166.26C178.446 216.939 188.325 207.151 188.325 195.078C188.325 184.687 181.008 175.989 171.2 173.767Z" fill="url(#paint1_linear_1_16)"/>
</g>
<defs>
<filter id="filter0_f_1_16" x="0.212158" y="0" width="279.788" height="272.45" filterUnits="userSpaceOnUse" color-interpolation-filters="sRGB">
<feFlood flood-opacity="0" result="BackgroundImageFix"/>
<feBlend mode="normal" in="SourceGraphic" in2="BackgroundImageFix" result="shape"/>
<feGaussianBlur stdDeviation="38.5" result="effect1_foregroundBlur_1_16"/>
</filter>
<filter id="filter1_i_1_16" x="85.5981" y="91.1511" width="109.016" height="114.016" filterUnits="userSpaceOnUse" color-interpolation-filters="sRGB">
<feFlood flood-opacity="0" result="BackgroundImageFix"/>
<feBlend mode="normal" in="SourceGraphic" in2="BackgroundImageFix" result="shape"/>
<feColorMatrix in="SourceAlpha" type="matrix" values="0 0 0 0 0 0 0 0 0 0 0 0 0 0 0 0 0 0 127 0" result="hardAlpha"/>
<feOffset dy="5"/>
<feGaussianBlur stdDeviation="9"/>
<feComposite in2="hardAlpha" operator="arithmetic" k2="-1" k3="1"/>
<feColorMatrix type="matrix" values="0 0 0 0 1 0 0 0 0 1 0 0 0 0 1 0 0 0 0.81 0"/>
<feBlend mode="normal" in2="shape" result="effect1_innerShadow_1_16"/>
</filter>
<filter id="filter3_i_1_16" x="40" y="128.888" width="148.325" height="98.0515" filterUnits="userSpaceOnUse" color-interpolation-filters="sRGB">
<feFlood flood-opacity="0" result="BackgroundImageFix"/>
<feBlend mode="normal" in="SourceGraphic" in2="BackgroundImageFix" result="shape"/>
<feColorMatrix in="SourceAlpha" type="matrix" values="0 0 0 0 0 0 0 0 0 0 0 0 0 0 0 0 0 0 127 0" result="hardAlpha"/>
<feOffset dy="11"/>
<feGaussianBlur stdDeviation="5"/>
<feComposite in2="hardAlpha" operator="arithmetic" k2="-1" k3="1"/>
<feColorMatrix type="matrix" values="0 0 0 0 1 0 0 0 0 1 0 0 0 0 1 0 0 0 1 0"/>
<feBlend mode="normal" in2="shape" result="effect1_innerShadow_1_16"/>
</filter>
<linearGradient id="paint0_linear_1_16" x1="131.827" y1="175.328" x2="176.675" y2="96.6709" gradientUnits="userSpaceOnUse">
<stop stop-color="#FF9900"/>
<stop offset="1" stop-color="#FFEE94"/>
</linearGradient>
<linearGradient id="paint1_linear_1_16" x1="49.4342" y1="209.077" x2="199.069" y2="97.1785" gradientUnits="userSpaceOnUse">
<stop stop-color="white"/>
<stop offset="1" stop-color="white" stop-opacity="0.58"/>
</linearGradient>
</defs>
</svg>
