<svg width="41" height="41" viewBox="0 0 41 41" fill="none" xmlns="http://www.w3.org/2000/svg">
<path fill-rule="evenodd" clip-rule="evenodd" d="M18.1426 9.56488C17.8608 9.56474 17.5851 9.64684 17.3494 9.80111C17.1136 9.95538 16.928 10.1751 16.8153 10.4333C16.7012 10.6947 16.5368 10.931 16.3314 11.1289C16.1261 11.3267 15.8837 11.4821 15.6183 11.5863C15.3528 11.6904 15.0694 11.7413 14.7843 11.7359C14.4992 11.7306 14.218 11.6691 13.9566 11.5551C13.6952 11.441 13.4589 11.2766 13.2611 11.0713C13.0633 10.8659 12.9078 10.6235 12.8037 10.3581C12.6995 10.0926 12.6487 9.80926 12.654 9.52415C12.6594 9.23904 12.7208 8.95778 12.8349 8.69642C13.2524 7.73979 13.9207 6.91382 14.7692 6.30591C15.6176 5.698 16.6147 5.33077 17.6547 5.24307C18.6948 5.15537 19.7393 5.35047 20.6776 5.80772C21.6158 6.26498 22.4131 6.96737 22.9849 7.84058C23.5567 8.7138 23.8818 9.72534 23.9258 10.7682C23.9698 11.811 23.7311 12.8464 23.2349 13.7647C22.7387 14.6829 22.0035 15.45 21.107 15.9847C20.2106 16.5194 19.1863 16.8018 18.1426 16.802H10.1817C9.6059 16.802 9.05366 16.5733 8.64649 16.1661C8.23932 15.7589 8.01058 15.2067 8.01058 14.6309C8.01058 14.0551 8.23932 13.5028 8.64649 13.0956C9.05366 12.6885 9.6059 12.4597 10.1817 12.4597H18.1426C18.5264 12.4597 18.8946 12.3072 19.1661 12.0358C19.4375 11.7643 19.59 11.3962 19.59 11.0123C19.59 10.6284 19.4375 10.2603 19.1661 9.98882C18.8946 9.71738 18.5264 9.56488 18.1426 9.56488ZM29.722 15.3546C29.4402 15.3545 29.1646 15.4366 28.9288 15.5908C28.693 15.7451 28.5074 15.9648 28.3947 16.223C28.1644 16.7509 27.7338 17.1656 27.1977 17.376C26.6616 17.5863 26.0639 17.5751 25.536 17.3448C25.0082 17.1145 24.5935 16.6839 24.3831 16.1478C24.1727 15.6117 24.1839 15.014 24.4143 14.4861C24.8318 13.5295 25.5001 12.7035 26.3486 12.0956C27.1971 11.4877 28.1941 11.1205 29.2342 11.0328C30.2742 10.9451 31.3187 11.1402 32.257 11.5974C33.1953 12.0547 33.9925 12.7571 34.5643 13.6303C35.1361 14.5035 35.4612 15.5151 35.5052 16.5579C35.5492 17.6007 35.3105 18.6361 34.8143 19.5544C34.3181 20.4726 33.5829 21.2397 32.6865 21.7744C31.79 22.3091 30.7658 22.5915 29.722 22.5917H7.28686C6.71104 22.5917 6.1588 22.363 5.75164 21.9558C5.34447 21.5486 5.11572 20.9964 5.11572 20.4206C5.11572 19.8448 5.34447 19.2925 5.75164 18.8854C6.1588 18.4782 6.71104 18.2494 7.28686 18.2494H29.722C30.1059 18.2494 30.474 18.0969 30.7455 17.8255C31.0169 17.5541 31.1694 17.1859 31.1694 16.802C31.1694 16.4181 31.0169 16.05 30.7455 15.7785C30.474 15.5071 30.1059 15.3546 29.722 15.3546ZM22.605 30.4078C22.7094 30.647 22.8764 30.8535 23.0885 31.0054C23.3006 31.1574 23.5499 31.2492 23.8099 31.2712C24.0699 31.2931 24.331 31.2444 24.5655 31.1301C24.8001 31.0158 24.9994 30.8402 25.1424 30.6219C25.2854 30.4037 25.3667 30.1508 25.3777 29.8901C25.3887 29.6294 25.3291 29.3706 25.2051 29.141C25.0811 28.9114 24.8974 28.7196 24.6733 28.5859C24.4492 28.4522 24.1932 28.3816 23.9323 28.3814H14.524C13.9482 28.3814 13.3959 28.1527 12.9888 27.7455C12.5816 27.3384 12.3529 26.7861 12.3529 26.2103C12.3529 25.6345 12.5816 25.0822 12.9888 24.6751C13.3959 24.2679 13.9482 24.0392 14.524 24.0392H23.9323C24.9761 24.0391 26.0005 24.3213 26.8971 24.8558C27.7937 25.3904 28.5291 26.1573 29.0255 27.0756C29.5219 27.9938 29.7608 29.0292 29.717 30.0721C29.6731 31.115 29.3481 32.1266 28.7764 33C28.2047 33.8733 27.4075 34.5758 26.4692 35.0332C25.5309 35.4906 24.4864 35.6858 23.4463 35.5981C22.4061 35.5105 21.409 35.1433 20.5605 34.5354C19.7119 33.9274 19.0435 33.1014 18.626 32.1448C18.5058 31.8825 18.439 31.599 18.4297 31.3107C18.4203 31.0224 18.4684 30.7351 18.5713 30.4656C18.6742 30.1961 18.8297 29.9499 19.0288 29.7412C19.228 29.5325 19.4667 29.3655 19.731 29.2501C19.9954 29.1347 20.2801 29.0732 20.5685 29.0691C20.857 29.0649 21.1433 29.1183 21.4109 29.2261C21.6784 29.3339 21.9218 29.4939 22.1269 29.6968C22.3319 29.8997 22.4944 30.1414 22.605 30.4078Z" fill="#B1DEF0"/>
</svg>
